<?xml version="1.0" encoding="utf-8"?>
<!-- Generator: Adobe Illustrator 26.3.1, SVG Export Plug-In . SVG Version: 6.00 Build 0)  -->
<svg version="1.1" xmlns="http://www.w3.org/2000/svg" xmlns:xlink="http://www.w3.org/1999/xlink" x="0px" y="0px"
	 viewBox="0 0 413.4 291.7" style="enable-background:new 0 0 413.4 291.7;" xml:space="preserve">
<style type="text/css">
	.st0{opacity:0.1;fill:#009A93;}
	.st1{fill:#636466;}
	.st2{fill:#003C3E;}
	.st3{fill:#F6B07E;}
	.st4{fill:#D6E9E2;}
	.st5{fill:#87CACB;}
	.st6{opacity:0.2;}
	.st7{fill:#2C539F;}
	.st8{fill:#EE985F;}
	.st9{fill:#096164;}
	.st10{fill:#20376B;}
	.st11{fill:#0C7478;}
	.st12{fill:#FFFFFF;}
	.st13{fill:#E7925B;}
	.st14{fill:#E9F2FA;}
	.st15{fill:#19355C;}
	.st16{fill:#1A4789;}
	.st17{fill:#2B221E;}
	.st18{fill:#EE965D;}
	.st19{fill:#E2E3E4;}
	.st20{fill:#C7C8CA;}
</style>
<g id="Background">
	<path class="st0" d="M23.9,231.4c0,0-35.5-81.6,24.6-113.4c49.4-26.2,81.7,3.5,122-2.8c53.3-8.3,74.6-62.7,147.4-50.2
		c78.3,13.4,96.2,70.5,74.1,166.5l-365.1,0"/>
</g>
<g id="scenes">
	<g>
		<g>
			<g>
				<path class="st1" d="M24.5,231.4h365.8c0,0,20,4.6,3.3,11.8c-16.8,7.2-49.7,15-114.3,10.6c0,0-17.7,15-92.9,14.4
					s-88.6-12.6-91.1-18.5C95.4,249.9,11.7,252.4,24.5,231.4"/>
			</g>
		</g>
	</g>
	<g>
		<g>
			<path class="st2" d="M147.1,123.5c-0.3,0-0.7-0.2-0.9-0.5l-3.1-6.7h-10.4c-0.4,0-1-0.3-1-1c0-0.4,0.3-1,1-1h10.9
				c0.3,0,0.7,0.2,0.9,0.5l3.4,7.2c0.2,0.4,0,1-0.4,1.2C147.5,123.5,147.4,123.5,147.1,123.5z"/>
		</g>
		<path class="st2" d="M140.6,116.7h-7.9c-0.8,0-1.4-0.7-1.4-1.4l0,0c0-0.8,0.7-1.4,1.4-1.4h7.9c0.8,0,1.4,0.7,1.4,1.4l0,0
			C142,116.1,141.4,116.7,140.6,116.7z"/>
		<path class="st3" d="M132.5,112.5c0.3,0.2,4.9-0.3,6.3,0.5c1.5,1,2.9,3.5,2.3,4.5c-0.7,1-3.8-1.9-4.7-1.7c-1,0-3.6-0.8-3.6-0.8
			L132.5,112.5z"/>
		<path class="st4" d="M133.9,112.2c0,0,0.4,0.9,0.4,1.6c0,1.2-0.4,1.7-0.4,1.7s-5.6,0.4-11.6-0.3c-3.3-0.4-6.8-1.3-9.5-3
			c-3.7-2.2-7.2-9.9-9.7-17.2c-2.7-7.8-4.5-15.3-4.5-15.3c1.2-3,4.6-4.9,7.3-4.5c1.5,0.3,5.1,1.4,5.9,2.4c1.2,1.6,4.8,16.6,7.5,23.6
			C120.2,102.9,133.9,112.2,133.9,112.2z"/>
		<path class="st5" d="M122.3,115c-3.3-0.4-6.8-1.3-9.5-3c-3.7-2.2-7.2-9.9-9.7-17.2c0-5.2,0-9.7,0-9.7l6,2.5
			c0.2,0.3,2.2,18.6,6.5,22.3C119.4,113.1,121.8,114.7,122.3,115z"/>
		<rect x="196.8" y="160.9" class="st2" width="2.9" height="60.6"/>
		<g class="st6">
			<path class="st2" d="M203.4,225.9c0-2.8-2.3-5.1-5.1-5.1c-2.8,0-5.1,2.3-5.1,5.1c0,2.8,2.3,5.1,5.1,5.1S203.4,228.8,203.4,225.9z
				"/>
			<path class="st5" d="M196.5,225.9c0-1,0.8-1.7,1.7-1.7s1.7,0.8,1.7,1.7c0,1-0.8,1.7-1.7,1.7C197.3,227.7,196.5,226.9,196.5,225.9
				z"/>
		</g>
		<g>
			<path class="st2" d="M125.1,123.5c-0.3,0-0.7-0.2-0.9-0.5l-3.1-6.7h-10.2c-0.4,0-1-0.3-1-1c0-0.4,0.3-1,1-1h10.9
				c0.3,0,0.7,0.2,0.9,0.5l3.4,7.2c0.2,0.4,0,1-0.4,1.2C125.5,123.5,125.2,123.5,125.1,123.5z"/>
		</g>
		<g class="st6">
			<g>
				<g>
					<path class="st7" d="M164.8,228.7c-0.2-1,10.7-39.3,12-43.6l0.3,0.1c-3.4,11.8-12,42.4-12,43.6H164.8z"/>
				</g>
				<g>
					<path class="st7" d="M149,200.7c1-0.2,39.3,10.7,43.6,12l-0.1,0.3c-11.8-3.4-42.4-12-43.6-12L149,200.7z"/>
				</g>
				<g>
					<path class="st7" d="M153.1,192.8c1,0.2,32.2,25,35.7,27.8l-0.2,0.3c-9.5-7.6-34.5-27.5-35.5-27.8V192.8z"/>
				</g>
				<g>
					<path class="st7" d="M193.6,203.9c-1-0.3-40.4,5.1-44.9,5.8l0.1,0.3c12-1.7,43.6-6,44.8-5.8V203.9L193.6,203.9z"/>
				</g>
				<g>
					<path class="st7" d="M162.4,186.1c0.8,0.7,15.4,37.7,17.1,42l-0.3,0.1c-4.5-11.3-16.2-41-17-41.7L162.4,186.1z"/>
				</g>
				<g>
					<path class="st7" d="M188.8,193.2c-1,0.2-32.5,24.6-36,27.4l0.2,0.3c9.6-7.4,34.9-27,36-27.2L188.8,193.2z"/>
				</g>
			</g>
			<ellipse class="st5" cx="170.6" cy="207.4" rx="3.1" ry="3.1"/>
			<g>
				<path class="st2" d="M146.3,206.9c0-13.4,10.8-24.2,24.2-24.2c13.4,0,24.2,10.8,24.2,24.2c0,13.4-10.8,24.2-24.2,24.2
					C157.2,231,146.3,220.2,146.3,206.9z M149,206.9c0,12,9.7,21.6,21.6,21.6s21.6-9.7,21.6-21.6c0-12-9.7-21.6-21.6-21.6
					C158.6,185.2,149,195,149,206.9z"/>
			</g>
		</g>
		<path class="st2" d="M118.5,116.7h-7.9c-0.8,0-1.4-0.7-1.4-1.4l0,0c0-0.8,0.7-1.4,1.4-1.4h7.9c0.8,0,1.4,0.7,1.4,1.4l0,0
			C119.9,116.1,119.2,116.7,118.5,116.7z"/>
		<path class="st8" d="M188.5,155.3c0,0,4.5,0.4,5.1,1c0.5,0.7,2.5,3.9,2.6,4.6c0.1,0.7,0,1.7-0.4,1.6s-2.4-3.3-3.4-3.3
			s-4.1-1.3-4.1-1.3L188.5,155.3z"/>
		<polygon class="st9" points="183.9,179.3 142.1,179.7 123.4,121.1 162,120.6 		"/>
		<path class="st8" d="M170.4,123.6c0,0,0.9,21.6,2.8,23.7c1.3,1.4,15.4,8,15.4,8l-0.1,2.6c0,0-18.2-2.5-20.9-5.8
			c-5.2-6.4-5.7-23.9-5.9-25.7C161.3,124.5,166.7,120.8,170.4,123.6z"/>
		<path class="st10" d="M211.4,214.8h-13.9c0,0-0.4-2.3,0.3-3.8c0.9-1.3,0.4-2.1-0.1-3.2c0.7,0.3,1.4,0.4,2.4,0.4
			c0.7,0,1.4-0.3,2.1-0.8c0.5,0.7,3.2,3.6,3.9,4.1C207.1,212.4,211.1,212.2,211.4,214.8z"/>
		<path class="st11" d="M147,163.7c1,5.6,5.8,9.6,11.6,9.6c7.1-0.1,17.3-0.2,21-0.3c8-0.3,11,0,10.9,0.3c-0.3,3.4-0.7,1.9,3.1,1.7
			c0,0,13.2-0.3,9.3-9.4c-3.9-9-41.3-11.8-44.6-11.3C155.5,154.4,145.6,155.1,147,163.7z"/>
		<path class="st11" d="M203.6,169c-0.2,6.4-1.1,24,1.3,38.1c0.7,3.6-4.5,3.7-4.5,3.7c-1,0.1-2.7,0.2-3.3-0.4
			c-3.9-4.9-9.6-27.8-8.1-37.3c0.8-4.6,5.3-4.5,9.2-6.3C200.4,165.7,203.7,166.4,203.6,169z"/>
		<rect x="134.8" y="159.5" class="st2" width="2.9" height="48.4"/>
		<path class="st9" d="M157,85c4-1.1,8.5-0.1,11.7,2.6c1.4,1.2,3,2.7,4.5,4.5c3.7,4.5-2.5,9.6-1.6,11.1c1,1.5,3,2.7,2.4,6.1
			c-0.7,3.4-6.2,8-8,8.4c-18.9,3-27.8-7-21.7-13c6-6,3-14.1,7.9-17.5C153.7,86.1,155.3,85.5,157,85z"/>
		<path class="st3" d="M171,122c-1.5,1.2-3.4,2.2-5.8,2.9c-9.2,2.6-13.2-5-14.8-10.2c1.2-0.9,2.4-1,3.1-1.1c0.7-0.1,1.3-0.2,2-0.3
			c1-0.9,2.4-4.2,2.4-9.3l0.4,0.1l7.4,1.6c0,0-0.2,2.4-0.2,4.5c0,1.7,0,3.4,0.3,3.8c0.4,0.2,1,0.3,1,0.3c0.1,0.2,0.1,0.1,0.1,0
			C166.9,114.4,169.1,117.7,171,122z"/>
		<path class="st8" d="M165.6,105.6c0,0-0.2,2.4-0.2,4.5c-4.1-0.2-6.3-4-7.2-6.1L165.6,105.6z"/>
		<path class="st3" d="M167,107.8c0,0-9.9,0-9.8-6.1c0.1-6.1-1.1-10.2,5.1-10.6c6.3-0.3,7.5,2.1,8,4.1
			C170.8,97.3,169.6,107.6,167,107.8z"/>
		<path class="st9" d="M170.1,91.9c-1.5-1.9-2.6-1.5-3.3-1c-5.3-3-8.8,1.3-8.8,1.3c-0.8,4.5-3.9,6.9-3.9,6.9s1.7,1.3,5.9,0.1
			c5.2-1.5,6.9-6.2,7.1-7c0.5,0.5,1.3,0.9,2,2.1c0.8,1.4,1.2,2.3,1.3,4.8C170.3,99.1,172.3,94.6,170.1,91.9z"/>
		<rect x="180.9" y="214.6" class="st2" width="35" height="2.8"/>
		<path class="st5" d="M142.8,163.7c1,5.6,5.8,9.6,11.6,9.6c7.1-0.1,17.3-0.2,21-0.3c8-0.3,11,0,10.9,0.3c-0.3,3.4-0.7,1.9,3.1,1.7
			c0,0,13.2-0.3,9.3-9.4s-41.3-11.8-44.6-11.3C151.2,154.4,141.4,155.1,142.8,163.7z"/>
		<path class="st4" d="M142.8,145.1c0.7-4.6-1-21.9,2.6-27.2c2.6-3.9,6.2-5.4,10.7-5.6c1.4,0.9,7,3.9,9.2,3.4h0.1
			c1-0.3,1.3-1,0.4-1.6c0,0,3.7,0.8,4.8,2.1c1.1,1.2,1,3.9,1.4,7.1c0.1,0.8,0.1,1.6,0.2,2.4c0.4,3.6-0.8,3.9-4.6,14.1
			c-1.9,5-1,8.9,0.3,11.7c1.1,2.4,0.3,5.2-1.9,6.7c-7.7,4.9-22.7,13.4-23.1,5.9C142.1,156.2,141.8,151.4,142.8,145.1z"/>
		<path class="st3" d="M155.8,122.9c0,0,3.7,25.1,6.2,27.1c1.6,1.4,17.4,3.9,17.4,3.9l0.3,2.4c0,0-22.6,1.7-23.9-0.2
			c-5.1-7.6-8.8-27.2-9.4-29.3C145.8,125,151.3,120.2,155.8,122.9z"/>
		<path class="st9" d="M207.2,214.6h-14.1c0,0-0.4-2.3,0.3-3.8c0.9-1.3,0.4-2.1-0.1-3.2c0.7,0.3,1.4,0.4,2.4,0.4
			c0.7,0,1.4-0.3,2.1-0.8c0.5,0.7,3.2,3.6,3.9,4.1C202.7,212.3,206.8,212,207.2,214.6z"/>
		<path class="st5" d="M199.2,169c-0.2,6.4-1.1,24,1.3,38.1c0.7,3.6-4.5,3.7-4.5,3.7c-1,0.1-2.7,0.2-3.3-0.4
			c-3.9-4.9-9.6-27.8-8.1-37.3c0.8-4.6,5.3-4.5,9.2-6.3C196.2,165.7,199.4,166.4,199.2,169z"/>
		<path class="st12" d="M168.6,104.1c0,0-1-0.3-3.6,0.1c0,0,0.2,1,2.2,1C168.3,105.2,168.6,104.1,168.6,104.1z"/>
		<path class="st4" d="M159.3,130.5c0,0-6.7,5.8-14.5,3.8c0,0-2.8-18.7,7-19C151.8,115.3,159.9,118.5,159.3,130.5z"/>
		<rect x="137.7" y="175.9" class="st2" width="46.9" height="3.7"/>
		<rect x="169.2" y="173.8" transform="matrix(0.866 -0.5 0.5 0.866 -75.452 111.9372)" class="st2" width="3.8" height="45.8"/>
		<path class="st2" d="M137.7,175.9c0.9,0,4.1-3.1,9.3-2.9c5.1,0.2,33.6,0,33.6,0s3.7-0.3,4,2.9H137.7L137.7,175.9z"/>
		<rect x="180.5" y="160.9" class="st2" width="2.9" height="60.6"/>
		<path class="st3" d="M179.3,154c0,0,5,0.3,5.6,1c0.6,0.7,2.5,3.9,2.6,4.6s0,1.7-0.4,1.6c-0.4-0.2-2.4-3.5-3.4-3.6
			c-1,0-4.1-1.1-4.1-1.1L179.3,154z"/>
		<path class="st2" d="M133,162.6h54.6l0,0c0-3.4-2.7-6.1-6.1-6.1h-44.9c-2,0-3.6,1.6-3.6,3.6V162.6z"/>
		<g>
			<g>
				<g>
					<path class="st7" d="M130.6,228.7c-0.2-1,10.7-39.3,12-43.6l0.3,0.1c-3.4,11.8-12,42.4-12,43.6H130.6z"/>
				</g>
				<g>
					<path class="st7" d="M114.8,200.7c1-0.2,39.3,10.7,43.6,12l-0.1,0.3c-11.8-3.4-42.4-12-43.6-12V200.7z"/>
				</g>
				<g>
					<path class="st2" d="M118.8,192.8c1,0.2,32.2,25,35.7,27.8l-0.2,0.3c-9.5-7.6-34.5-27.5-35.5-27.8L118.8,192.8z"/>
				</g>
				<g>
					<path class="st7" d="M159.3,203.9c-1-0.3-40.4,5.1-44.9,5.8l0.1,0.3c12-1.7,43.6-6,44.8-5.8V203.9z"/>
				</g>
				<g>
					<path class="st7" d="M128.1,186.1c0.8,0.7,15.4,37.7,17.1,42l-0.3,0.1c-4.5-11.3-16.2-41-17-41.7L128.1,186.1z"/>
				</g>
				<g>
					<path class="st7" d="M154.5,193.2c-1,0.2-32.5,24.6-36,27.4l0.2,0.3c9.7-7.5,34.9-27,36-27.2L154.5,193.2z"/>
				</g>
			</g>
			<path class="st5" d="M133.2,207.4c0-1.7,1.4-3.1,3.1-3.1c1.7,0,3.1,1.4,3.1,3.1c0,1.7-1.4,3.1-3.1,3.1
				C134.6,210.4,133.2,209.1,133.2,207.4z"/>
			<g>
				<path class="st2" d="M112.1,206.9c0-13.4,10.8-24.2,24.2-24.2s24.2,10.8,24.2,24.2c0,13.4-10.8,24.2-24.2,24.2
					S112.1,220.2,112.1,206.9z M114.7,206.9c0,12,9.7,21.6,21.6,21.6c12,0,21.6-9.7,21.6-21.6c0-12-9.7-21.6-21.6-21.6
					C124.3,185.2,114.7,195,114.7,206.9z"/>
			</g>
		</g>
		<g>
			<path class="st2" d="M187,225.9c0-2.8-2.3-5.1-5.1-5.1c-2.8,0-5.1,2.3-5.1,5.1c0,2.8,2.3,5.1,5.1,5.1
				C184.7,231.1,187,228.8,187,225.9z"/>
			<path class="st5" d="M180.2,225.9c0-1,0.8-1.7,1.7-1.7c1,0,1.7,0.8,1.7,1.7c0,1-0.8,1.7-1.7,1.7
				C180.9,227.7,180.2,226.9,180.2,225.9z"/>
		</g>
		<path class="st9" d="M84.3,83c-0.7-1.3,15.1-6.1,15.4,7.1c0,0,29.6-0.8,15.4-17.2c-4.9-5.8-4.5-10.5-4.2-14.8s-3.1-17.3-14.1-16
			c0,0-2.9-1.1-6.5,0.7C82.3,47,64,87.9,84.3,83z"/>
		<path class="st2" d="M64.2,216c0,0-3.3,3-2.6,5.1c0.7,2.2,3.7,3.6,4,6.2c0.3,2.6,2.1,4,3.5,4c1.4,0,7,0,7,0s1-1.9-1.5-2.4
			c-2.5-0.5-3.6-3.7-3.4-6.5c0.2-2.9-0.3-6.7-0.3-6.7l-5.6-1.3L64.2,216z"/>
		<path class="st2" d="M92.3,217.3c0,0-1.2,13,0.3,13.7h18.9c0,0-0.2-2.4-3.2-2.8c-3-0.4-8.3-2.3-9.2-6.1
			C98.2,218.2,92.3,217.3,92.3,217.3z"/>
		<path class="st3" d="M79,125.2c3.8-8.6,6.2-11.1,5.8-13.7c-0.3-2,1-37.1,1-37.1c0.4-0.1,1.3-0.3,1.9-0.3c1.6-0.3,2.9-1.4,3.4-3
			c0.7-1.9,1.1-4.5,1.1-7.9l0.4,0.1l8.3,1.6c0,0-0.2,2.6-0.2,5.1c0,0,0,0,0,0.1c0,2.2,1.4,4,3.4,4.6c1,0.3,2,0.5,2,0.5
			s3,8.6,3.6,17.6c0.5,8.9-5.6,12.8,0,30.5C115.4,141.6,77,130,79,125.2z"/>
		<path class="st13" d="M101,65c0,0-0.2,2.6-0.2,5.1c-4.6-0.1-7.1-4.4-8.1-6.7L101,65z"/>
		<path class="st3" d="M102.5,67.4c0,0-10.9,0.2-10.9-6.7c0-6.8-1.4-11.3,5.6-11.8c7-0.3,8.4,2.2,8.9,4.5
			C106.6,55.6,105.4,67,102.5,67.4z"/>
		<path class="st9" d="M102.1,48.7c0,0-3,8-7.6,9.2c-4.6,1.2-6.5-0.1-6.5-0.1s3.5-2.8,4.2-7.7C92.1,50.1,99.8,44.9,102.1,48.7z"/>
		<path class="st2" d="M101.4,49.4c0,0,2.3,0.9,3.1,2.4c1,1.6,1.7,3.7,1.5,6.3c0,0,2.3-5.4-0.3-8.6C103,46.3,101.4,49.4,101.4,49.4z
			"/>
		<path class="st14" d="M100.2,63.1c0,0,0.8,1,2.3,1c1.2-0.1,1.7-1.1,1.7-1.1S101.8,62.4,100.2,63.1z"/>
		<path class="st4" d="M108.2,110l-10.8,3.2l-3.5-0.9l-9.7-2.4c0,0-1.2-0.3-2.4-3c-0.2-0.4-0.5-2-1-3.8c-0.4-2-1-4.2-1.1-5.8
			c-0.3-2.4-1.1-5.3-1.7-8.6l0,0c-0.4-2.4-1-4.8-1.1-7.2c-0.3-3.3,2.2-6.2,5.4-6.5l3.7-0.3c11.6,9.4,20.4,0.8,20.4,0.8s3,5.3,5,13.2
			C113.2,96.2,108.2,110,108.2,110z"/>
		<path class="st11" d="M107.6,112.2c0,0,5.3,16.8,5.8,22.5c0.3,5.8-10.2,81-10.7,83.5c-0.3,2.4-3.5,4-3.5,4s-1.4,0.9-3.4,0.3
			c-2.8-0.8-3.7-1.7-3.7-1.7s-4.2-53.7-1.6-72.8c2.5-19.2,2.6-35.7,2.6-35.7L107.6,112.2L107.6,112.2z"/>
		<path class="st5" d="M84.8,111.5c0,0-8.2,11-8.9,18.4c-0.8,7.4-1.2,33.6-2.8,40.8s-7.6,21.3-7.6,43.8c0,0,0.7,1.3,2.5,2
			c0.7,0.2,1.4,0.4,2.3,0.7c1.6,0.3,3.2-0.3,3.9-1.9c4-8.2,16.9-34.4,17.6-39.9c0.4-3.8,4.5-29.4,13.4-44.4
			c2.2-3.6-1.3-17.9-1.3-17.9L84.8,111.5z"/>
		<path class="st12" d="M100.4,63.2c0,0,0.2,0.9,2.2,0.7c0,0,1.7-0.1,1.6-1C104.2,62.9,102.6,62.4,100.4,63.2z"/>
		<path class="st2" d="M108.5,109.4c0,0-2.2,1.7-6.5,1.7c-5.1,0.1-17.8-1.3-17.8-1.3s-0.5,1.6-0.5,3.2c0,0,15.5,3.9,24.4,0.5
			C108,113.8,109.2,111.6,108.5,109.4z"/>
		<g>
			<path class="st12" d="M100.8,113c0-1.4,1-2.6,2.4-2.6c1.3,0,2.4,1.2,2.4,2.6s-1,2.6-2.4,2.6C101.8,115.7,100.8,114.4,100.8,113z
				 M101.7,113c0,1,0.8,1.9,1.6,1.9c0.9,0,1.6-0.9,1.6-1.9c0-1-0.8-1.9-1.6-1.9C102.3,111.2,101.7,112,101.7,113z"/>
		</g>
		<path class="st5" d="M90,109.4c-4.2-2.2-7.2-4.2-9.3-6.3c-0.4-2-1-4.2-1.1-5.8c-0.3-2.4-1.7-8.3-2.4-11.4L94.7,111
			C94.7,111,95.5,112.3,90,109.4z"/>
		<path class="st5" d="M96.2,92.8c0,0,7.7,12.3,10,14.5c2.3,2.3-9.2-1.7-9.2-1.7L96.2,92.8z"/>
		<path class="st3" d="M113.8,112.5c0.3,0.2,4.9-0.3,6.3,0.5c1.5,1,2.9,3.5,2.3,4.5c-0.7,1-3.8-1.9-4.7-1.7c-1,0-3.6-0.8-3.6-0.8
			L113.8,112.5z"/>
		<path class="st4" d="M77.3,85.9c0,0,8.2,21.7,15.8,26.3c7.6,4.5,21,3.4,21,3.4s0.3-0.5,0.4-1.9c0.1-0.7-0.4-1.5-0.4-1.5
			s-13.7-9.2-14.3-10.7c-2.7-7.1-6.8-16.1-8.5-17.3C89.7,82.8,79,81.3,77.3,85.9z"/>
	</g>
	<g>
		<g>
			<g>
				
					<rect x="350.6" y="130.8" transform="matrix(0.98 -0.1992 0.1992 0.98 -29.1085 73.5942)" class="st15" width="1.2" height="101.4"/>
			</g>
			
				<rect x="340.7" y="130.7" transform="matrix(0.9795 -0.2014 0.2014 0.9795 -20.441 71.6675)" class="st15" width="2.5" height="11.3"/>
		</g>
		<g>
			<path class="st3" d="M295.1,219.4l-3.4-1.1c0,0-0.8-9.3,0.9-20.2c1-7,2.7-14.6,5.8-20.6c1.4-2.7,3.2-5.1,5.2-7.2
				c0,0,2.6-6,6-14.1c3.8-8.9,27.8-11.6,14.1,7.2c-2.8,3.8-5.8,10.6-9.4,14.8c-6.2,7.1-10.6,15.3-13.5,22.5
				C296.6,211,295.1,219.4,295.1,219.4z"/>
			<path class="st3" d="M287.4,219.9c-1,1.7,1.2,3.3,3.9,4.8c2.7,1.5,1.6,1.7,5.1,4.4c3.5,2.6,5.6,2.4,6.1,2c0.4-0.3-1-2-2.4-3.7
				c-0.2-0.2-0.3-0.4-0.5-0.7c-1.7-2-2-4.5-2.7-7.2c-0.8-2.4,0.4-8.6,0.4-8.6l-4.7-3.7c0,0-1,5.7-1.5,7.9c-0.3,1.4-1.4,2.5-2.4,3.4
				C288.3,218.9,287.6,219.3,287.4,219.9z"/>
			<path class="st16" d="M291.2,224.7c2.7,1.5,1.6,1.7,5.1,4.4c3.5,2.6,5.6,2.4,6.1,2c0.4-0.3-1-2-2.4-3.7l0,0c0,0-3.2-0.3-5.8-2.8
				c-2.2-2-3.9-4.7-5.4-6.1c-0.4,0.4-1,1-1.3,1.5C286.3,221.6,288.5,223.2,291.2,224.7z"/>
		</g>
		<path class="st2" d="M318.5,43c0,0-8.3-1-12.4,6.7c-4.1,7.7-3.8,18.9-7.8,24.1c-4,5.2,0.7,10.2,0.7,10.2l31.4,1
			c0,0,2.2-5.8,0-12.9C328.1,65.1,338.9,44,318.5,43z"/>
		<path class="st3" d="M346.5,136.4c-0.3,1.2-1.4,4-2.2,4c-0.7,0-1-3.4-1.7-4.1c-1.2-1-2.3-3.2-2.4-3.8c-0.3-1.1-0.7-1.3-0.7-1.3
			l0,0l0,0c0,0-9.9-18.2-10.7-22.8c-0.3-1.5-1-4.5-1.7-7.9c-0.9-3.7-1.7-7.8-2.5-10.9c3.2-0.7,6.7-0.9,9.5-1
			c0.5,3.8,1.1,7.6,1.5,10.9c0.7,5,1.1,8.8,1.5,9.7c0.9,2.3,3.2,14.5,5.4,20.8c0.3,0.7,1,2.3,1.7,2.8
			C345.4,133.4,346.8,135.2,346.5,136.4z"/>
		<path class="st3" d="M332.1,92.3c-0.5-8.7-7.3-18.2-7.3-18.2s-0.3,0-0.7-0.1c-0.2,0-0.4-0.2-0.4-0.3c-0.3-0.7-0.3-2.2-0.3-3.8
			c0-2.4,0.2-5,0.2-5l-8.2-1.6l-0.4-0.1c0,4.1-0.8,7.2-1.6,8.9c-0.3,0.9-1.2,1.4-2.1,1.5c-1.7,0.3-4.8,0.8-6.9,1.6
			c-1,0.3-1.7,1-2.1,1.5C299.9,81.8,332.6,101.1,332.1,92.3z"/>
		<path class="st13" d="M323.4,65c0,0-0.2,2.5-0.2,5c-4.5-0.1-7-4.4-7.9-6.5L323.4,65z"/>
		<path class="st3" d="M324.9,67.3c0,0-10.8,0.2-10.8-6.5s-1.4-11.2,5.4-11.7c6.9-0.3,8.3,2.2,8.7,4.5
			C328.9,55.8,327.7,67,324.9,67.3z"/>
		<path class="st3" d="M339.9,223.8l-3.5,0.9c0,0-5.4-7.4-10-17.6c-2.9-6.4-5.3-13.8-5.8-20.6c-0.2-3.1,0-6.1,0.7-8.8
			c0,0-1-6.5-2.3-15.1c-1.5-9.7-3.4-22-4.9-31.1l1-0.3l14.8-8.6c0,0,6.8,15.4,5.1,38.6c-0.3,4.7,0.7,12.1-0.2,17.5
			c-1.5,9.3-1,18.5,0.3,26.3C336.9,215.8,339.9,223.8,339.9,223.8z"/>
		<path class="st2" d="M328.1,49.7c-1.7-2-2.9-1.6-3.7-1c-5.8-3.2-9.7,1.5-9.7,1.5c-0.8,4.8-4.2,7.6-4.2,7.6s1.9,1,6.5,0.1
			c5.4-1.1,7-7.2,7.2-8.1c0.7,0.5,2,1.9,2.4,3.1c0.5,1.7,0.8,5.2,1.7,5.1C328.3,58.1,330.6,52.8,328.1,49.7z"/>
		<path class="st4" d="M338.9,183.8c-13,7.4-47.3-4.5-47.2-5.1c0.2-3.7,3.5-25.6,7.3-46.4c2.4-12.9,8.7-17.7,7.7-18.4l0,0
			c-3.9-2.8-7.1-32-4.5-36.9c0.1-0.3,0.3-0.4,0.7-0.7l0,0c2.4-1.7,7.4-2.4,7.4-2.4s2.6,6.5,3.5,7.6c5.3,6.7,14.8,3.7,13.5-0.4
			c-0.4-1.5-2.9-6.2-3.2-6.8l0.7,0.1c1.6,0.2,2.7,0.3,3.6,0.4c1.6,0.3,2,0.4,2.4,0.8c1.4,1.4,3.2,4.9,3.4,11.1
			c0.1,2.4,2.4,27.9-5.3,27.5c-0.2,0,0,0.3,0.3,1.2c1.1,2.5,4.2,8.8,5.1,17C337.1,158.8,338.9,183.8,338.9,183.8z"/>
		<path class="st12" d="M322.2,63.1c0,0,0.2,0.9,2.3,0.9c0,0,1.7,0,1.7-1C326.1,63,324.6,62.2,322.2,63.1z"/>
		<path class="st3" d="M333.6,228.2c0,2,2.7,2.2,5.9,2.1c3.1-0.1,2.3,0.5,6.5,1c4.4,0.3,6-1,6.2-1.6c0.2-0.5-1.9-1.1-4-1.9
			c-0.3-0.1-0.5-0.2-0.9-0.3c-2.4-0.9-4-2.8-6.1-4.6c-2-1.7-4.2-7.6-4.2-7.6l-5.9-0.7c0,0,2.2,5.2,2.9,7.5c0.4,1.3,0.1,2.9-0.2,4.1
			C333.8,226.8,333.6,227.5,333.6,228.2z"/>
		<path class="st16" d="M339.6,230.2c3.1-0.1,2.3,0.5,6.5,1c4.4,0.3,6-1,6.2-1.6c0.2-0.5-1.9-1.1-4-1.9l0,0c0,0-2.9,1.3-6.5,0.7
			c-2.9-0.4-5.8-2-7.8-2.3c-0.2,0.7-0.3,1.3-0.3,2C333.6,230.2,336.5,230.4,339.6,230.2z"/>
		<path class="st9" d="M338.9,183.8c-13,7.4-47.3-4.5-47.2-5.1c0.2-3.7,3.5-25.6,7.3-46.4c2.4-12.9,8.7-17.7,7.7-18.4
			c0.3,0.2,3.9,3.2,10.6,2.7c6-0.3,10.6-1.1,11.9-1.3c1.1,2.5,4.2,8.8,5.1,17C337.1,158.8,338.9,183.8,338.9,183.8z"/>
		<path class="st15" d="M306.6,113.8c0,0,10.6,4.5,22.1,0.3l0.5,1.7c0,0-11.9,4.1-23.2-0.5L306.6,113.8z"/>
		<path class="st15" d="M326.4,58.9h1.7c0.9,0,1.4-0.7,1.4-1.4V57c0-0.3-0.3-0.8-0.8-0.8h-3.5c-0.3,0-0.4,0.2-0.4,0.4v0.9
			C325,58.2,325.7,58.9,326.4,58.9z"/>
		<path class="st15" d="M321.2,58.9h-1.7c-0.9,0-1.4-0.7-1.4-1.4V57c0-0.3,0.3-0.8,0.8-0.8h3.5c0.3,0,0.4,0.2,0.4,0.4v0.9
			C322.6,58.2,322,58.9,321.2,58.9z"/>
		<g>
			<path class="st15" d="M322.1,57.3c0,0,1.5-0.7,3,0l0.1-0.2c-1.5-0.8-3.1,0-3.2,0L322.1,57.3z"/>
		</g>
		<g>
			<path class="st3" d="M294.8,106.7c-0.1-0.2,5.7-2,8.9-1.2c2,0.4,1.2,2.9-0.4,3.1C301.7,108.8,295.9,108.1,294.8,106.7z"/>
			<path class="st3" d="M304.7,106.2c0,0,1.9,2.4,1.9,3.7c0,1.2-1,3.8-2,3.6c-1-0.3-1.4-2.9-1.5-3.5c-0.1-0.5-1.3-1-1.5-1.9
				c-0.3-0.9-0.3-1.1-0.3-1.1L304.7,106.2z"/>
		</g>
		<path class="st3" d="M299.7,82.6c0,0-14.8,24.7-12.9,29.2c1.9,4.6,3.3,0.7,5-1.1c0.3-0.3,13.5-17.4,13.2-20.2
			C304.5,87.7,299.7,82.6,299.7,82.6z"/>
		<g>
			<g id="man_00000032639331990493646300000015027889107083847836_">
				<path class="st3" d="M306.8,110c0,0,6.4,0.9,7.1,1.2c0.7,0.4,2.1,3.5,1.9,4.5c-0.2,1-2.3,2.4-2.9,2.4c-0.8,0-1-1.6-1.6-1.9
					c-0.7-0.3-1.3-0.4-1.7-0.5c-1-0.3-2.8-1.1-2.8-1.1L306.8,110z"/>
				<path class="st2" d="M277.6,79.2c0,0,8.5,22.9,12,24.6c3.7,1.7,17,6.1,17,6.1v5.2c0,0-13.6,0.2-20.4-1.7
					c-6.8-2-15.6-9.4-15.6-9.4L277.6,79.2z"/>
				<path class="st17" d="M259.9,57.7l8.3,15.7l2,0.1l1,2.5l8.3,25C279.4,100.9,284,69.2,259.9,57.7z"/>
				<path class="st2" d="M273.8,71.5c0,0,9.2,33.7,10,65.8c0,0-7.6,2.6-19.5,0.5C252.3,135.7,273.8,71.5,273.8,71.5z"/>
				<g>
					<path class="st2" d="M232.1,231.6h-8.2c-1-0.5-2-1.9-2.3-3.8c-0.3-2.6-3.4-4.1-4-6.3c-0.6-2.2,2.6-5.1,2.6-5.1l0.5-0.8l0.5-0.8
						l5.4,1.3c0,0,0.1,1.3,0.2,2.9c0.1,1.2,0.1,2.5,0,3.8c-0.2,2.9,0.9,6,3.4,6.5C232.4,229.9,232.3,231,232.1,231.6z"/>
					<path class="st2" d="M279.8,231.6h-18.9c-1-1.1-0.5-5.1-0.4-6.5c0-0.3,0-0.3,0-0.3s6.4-5.1,7.3-1.2c0,0.1,0.1,0.3,0.1,0.3
						c1.1,3.7,6.1,5.3,8.9,5.8C278.8,229.9,279.5,230.9,279.8,231.6z"/>
					<path class="st5" d="M276.2,126.7c0,0-1,12.1-2.2,26.8c-1.5,19.8-3.4,44.2-3.6,48.8c-0.3,8-1.6,20.9-1.6,20.9s-3,3-9.2,1.7
						c0,0-5.4-18.3-7-37.7c0-0.3-0.1-0.7-0.1-1c-1.4-19.7-3.7-61.2-3.7-61.2L276.2,126.7z"/>
					<path class="st11" d="M276.2,126.7c0,0-1,12.1-2.2,26.8l-21.4,33.8c0-0.3-0.1-0.7-0.1-1c-1.4-19.7-3.7-61.2-3.7-61.2
						L276.2,126.7z"/>
					<path class="st5" d="M271.8,128.1c0,0-17.6,44-29.1,64.7c-11.6,20.7-15.1,26.4-15.1,26.4s-6.5-2.6-7.2-4.5
						c0,0,4.5-40,12.1-49.7c4.4-5.4,9.5-22,9.8-27.8c0.3-5.8,1.6-17.2,1.6-17.2L271.8,128.1z"/>
				</g>
				<path class="st3" d="M267.4,64c-6.9,2.2-18.7-3.7-18.7-3.7s6.3-4.7,6-14.7l5.2,4.2l3.6,2.9c0,0,0,1.7-0.3,4.7
					c-0.1,0.5-0.2,1.1-0.3,1.7c-0.1,0.4,0.1,1,0.5,1.3C265.9,62.1,267.4,64,267.4,64z"/>
				<path class="st12" d="M277,127.7c-0.2,0.2-0.4,0.3-0.8,0.3c-2.5,0-10,1.4-16.5,0.8c-5.3-0.4-10-2.1-15.3-4.5
					c-0.7-0.3-2.3-1.1-2.2-1.9c0-0.9,0.1-2.1,0.2-3.6c0.3-5.2,1-14.3,0.3-24.7c-0.1-2-0.2-3.8-0.2-5.8c-0.1-14.1,2.7-26.6,8.4-30.7
					c0,0,3.9,2.2,6.7,3.1c2.6,0.9,4,0.7,5.4-0.2c0,0,2.7,1.3,3.8,2.5c2.6,2.9,4.7,6.8,6.1,12.3c1.1,4.7,2.3,11.6,2.6,20.4
					C276,99.7,277.2,127.5,277,127.7z"/>
				<path class="st9" d="M237.9,134.2c17.3,10.8,31.4,5.3,31.4,5.3c2.5-19.8,1.1-43.7,0.9-49.6c-0.9-25.6-19-32.5-19-32.5l-7.5,23.4
					l-1.1,10.5l-2,18.9L237.9,134.2z"/>
				<path class="st18" d="M263.6,52.9c0,0,0,1.7-0.3,4.7c-4-0.7-8.6-7.2-8.6-7.2c2.1-0.5,3.8-0.7,5.3-0.4L263.6,52.9z"/>
				<path class="st3" d="M266.5,52.7c0,0-12.3,2.1-13.5-5.7c-1.1-7.7-3.6-12.7,4.4-14.3c7.8-1.7,9.8,1,10.8,3.6
					C269.1,38.7,269.8,51.9,266.5,52.7z"/>
				<path class="st3" d="M231.5,119.9c0,0-1.3,1.7-1.4,2.4c-0.3,4.8,1.7,5.4-3.8,8.1c0,0-2.4,1-2.4-1c0-1.9,1.7-1.9,1.3-4.5
					c-0.3-3-0.3-3.1,1.7-4.6l1.3-2.2L231.5,119.9z"/>
				<path class="st9" d="M253,46.3c0,0,1.2-0.2,1-2c-0.2-1.7-0.2-4,1.2-3.6c1.4,0.3,1.5,1.6,2.1,1c0.5-0.7,0.5-3.5,4.8-3.7
					c4.2-0.2,5.9,1.3,7.9,0.3c2-0.9,2.1-3.8,2.1-3.8s-0.5,1-1.4,1.4c0,0,3.3-4.5-0.4-7.5c-3.8-3.1-7.6-1-9.9-1
					c-4.8,0.3-8,0.5-9.6,3.8C249.2,34.4,249.9,43.2,253,46.3z"/>
				<path class="st3" d="M229.3,122c0,0,1.3,1.3,1.3,1.9c0.3,1.7,0.9,2.5,0.5,2.7c-0.7,0.3-1.4-1-1.7-2.1
					C229.1,123.4,229.3,122,229.3,122z"/>
				<path class="st2" d="M240.4,110.1c3.8-9.7,14.4-26,14.4-26l-12.4,7.3L240.4,110.1z"/>
				<path class="st9" d="M228.1,121.2c2.2,0.3,4.5,0.3,4.5,0.3s6.3-19.6,7.2-21.4c0.4-1.1,8.6-9.4,14.2-15c3.3-3.3,4.5-8.3,2.7-12.7
					l-5.4-14.8c0,0-4.2,2.5-8.7,10.4c-5.6,9.6-11.8,25.1-12.8,27.7c-3.3,7.5-4.5,24.4-4.5,24.4S226.5,121,228.1,121.2z"/>
				<path class="st2" d="M251.2,57.7l8.3,15.7l4.2-1.5l-1.4,4.2l8.3,25C270.5,100.9,275.2,69.2,251.2,57.7z"/>
			</g>
			<path class="st12" d="M267.4,48.3c0,0-0.4,1.2-1.7,1.3c-1.2,0-2.2-1.1-2.2-1.1S266.2,47.9,267.4,48.3z"/>
		</g>
		<path class="st4" d="M302.8,76.1c0,0-3.9,3.2-8.3,12.9c0,0,0.9,6.2,12,7.9C317.8,98.5,302.8,76.1,302.8,76.1z"/>
		<path class="st4" d="M329.8,75.1c0,0,4.1,0.7,5.9,8.6c1.7,8,1.5,12.3,1.5,12.3s-1.9,2.4-4.5,1.7C330.4,97.1,329.8,75.1,329.8,75.1
			z"/>
		<path class="st3" d="M283.8,114.4c0,0-0.9-1.7,2.9-4.4c2.8-2.1,9.4-3.8,9.4-3.8l8.2,0.5c0,0-8.6,7.2-12.7,8.7
			C287.6,117.1,284,116.2,283.8,114.4z"/>
	</g>
	<g>
		<polygon class="st12" points="223.1,256.7 60.2,256.7 80.8,240.6 240.5,240.6 		"/>
		<g>
			<g>
				<ellipse class="st19" cx="88.5" cy="243.8" rx="2.9" ry="1.5"/>
				<path class="st20" d="M89.8,244.6c-1.6,0-2.9-0.5-2.9-1.2c0-0.6,0.9-1,2.2-1.2c-0.2,0-0.4,0-0.6,0c-1.6,0-2.9,0.7-2.9,1.5
					s1.3,1.5,2.9,1.5c1.1,0,2-0.3,2.5-0.8C90.6,244.6,90.2,244.6,89.8,244.6z"/>
			</g>
			<g>
				<ellipse class="st19" cx="98.6" cy="243.8" rx="2.9" ry="1.5"/>
				<path class="st20" d="M99.9,244.6c-1.6,0-2.9-0.5-2.9-1.2c0-0.6,0.9-1,2.2-1.2c-0.2,0-0.4,0-0.6,0c-1.6,0-2.9,0.7-2.9,1.5
					s1.3,1.5,2.9,1.5c1.1,0,2-0.3,2.5-0.8C100.8,244.6,100.3,244.6,99.9,244.6z"/>
			</g>
			<g>
				<ellipse class="st19" cx="108.7" cy="243.8" rx="2.9" ry="1.5"/>
				<path class="st20" d="M110,244.6c-1.6,0-2.9-0.5-2.9-1.2c0-0.6,0.9-1,2.2-1.2c-0.2,0-0.4,0-0.6,0c-1.6,0-2.9,0.7-2.9,1.5
					s1.3,1.5,2.9,1.5c1.1,0,2-0.3,2.5-0.8C110.9,244.6,110.5,244.6,110,244.6z"/>
			</g>
			<g>
				<ellipse class="st19" cx="118.9" cy="243.8" rx="2.9" ry="1.5"/>
				<path class="st20" d="M120.2,244.6c-1.6,0-2.9-0.5-2.9-1.2c0-0.6,0.9-1,2.2-1.2c-0.2,0-0.4,0-0.6,0c-1.6,0-2.9,0.7-2.9,1.5
					s1.3,1.5,2.9,1.5c1.1,0,2-0.3,2.5-0.8C121,244.6,120.6,244.6,120.2,244.6z"/>
			</g>
			<g>
				<ellipse class="st19" cx="129" cy="243.8" rx="2.9" ry="1.5"/>
				<path class="st20" d="M130.3,244.6c-1.6,0-2.9-0.5-2.9-1.2c0-0.6,0.9-1,2.2-1.2c-0.2,0-0.4,0-0.6,0c-1.6,0-2.9,0.7-2.9,1.5
					s1.3,1.5,2.9,1.5c1.1,0,2-0.3,2.5-0.8C131.1,244.6,130.7,244.6,130.3,244.6z"/>
			</g>
			<g>
				<ellipse class="st19" cx="139.1" cy="243.8" rx="2.9" ry="1.5"/>
				<path class="st20" d="M140.4,244.6c-1.6,0-2.9-0.5-2.9-1.2c0-0.6,0.9-1,2.2-1.2c-0.2,0-0.4,0-0.6,0c-1.6,0-2.9,0.7-2.9,1.5
					s1.3,1.5,2.9,1.5c1.1,0,2-0.3,2.5-0.8C141.3,244.6,140.9,244.6,140.4,244.6z"/>
			</g>
			<g>
				<ellipse class="st19" cx="149.3" cy="243.8" rx="2.9" ry="1.5"/>
				<path class="st20" d="M150.5,244.6c-1.6,0-2.9-0.5-2.9-1.2c0-0.6,0.9-1,2.2-1.2c-0.2,0-0.4,0-0.6,0c-1.6,0-2.9,0.7-2.9,1.5
					s1.3,1.5,2.9,1.5c1.1,0,2-0.3,2.5-0.8C151.4,244.6,151,244.6,150.5,244.6z"/>
			</g>
			<g>
				<ellipse class="st19" cx="159.4" cy="243.8" rx="2.9" ry="1.5"/>
				<path class="st20" d="M160.7,244.6c-1.6,0-2.9-0.5-2.9-1.2c0-0.6,0.9-1,2.2-1.2c-0.2,0-0.4,0-0.6,0c-1.6,0-2.9,0.7-2.9,1.5
					s1.3,1.5,2.9,1.5c1.1,0,2-0.3,2.5-0.8C161.5,244.6,161.1,244.6,160.7,244.6z"/>
			</g>
			<g>
				<ellipse class="st19" cx="169.5" cy="243.8" rx="2.9" ry="1.5"/>
				<path class="st20" d="M170.8,244.6c-1.6,0-2.9-0.5-2.9-1.2c0-0.6,0.9-1,2.2-1.2c-0.2,0-0.4,0-0.6,0c-1.6,0-2.9,0.7-2.9,1.5
					s1.3,1.5,2.9,1.5c1.1,0,2-0.3,2.5-0.8C171.6,244.6,171.2,244.6,170.8,244.6z"/>
			</g>
			<g>
				<ellipse class="st19" cx="179.6" cy="243.8" rx="2.9" ry="1.5"/>
				<path class="st20" d="M180.9,244.6c-1.6,0-2.9-0.5-2.9-1.2c0-0.6,0.9-1,2.2-1.2c-0.2,0-0.4,0-0.6,0c-1.6,0-2.9,0.7-2.9,1.5
					s1.3,1.5,2.9,1.5c1.1,0,2-0.3,2.5-0.8C181.8,244.6,181.4,244.6,180.9,244.6z"/>
			</g>
			<g>
				<ellipse class="st19" cx="189.8" cy="243.8" rx="2.9" ry="1.5"/>
				<path class="st20" d="M191.1,244.6c-1.6,0-2.9-0.5-2.9-1.2c0-0.6,0.9-1,2.2-1.2c-0.2,0-0.4,0-0.6,0c-1.6,0-2.9,0.7-2.9,1.5
					s1.3,1.5,2.9,1.5c1.1,0,2-0.3,2.5-0.8C191.9,244.6,191.5,244.6,191.1,244.6z"/>
			</g>
			<g>
				<ellipse class="st19" cx="199.9" cy="243.8" rx="2.9" ry="1.5"/>
				<path class="st20" d="M201.2,244.6c-1.6,0-2.9-0.5-2.9-1.2c0-0.6,0.9-1,2.2-1.2c-0.2,0-0.4,0-0.6,0c-1.6,0-2.9,0.7-2.9,1.5
					s1.3,1.5,2.9,1.5c1.1,0,2-0.3,2.5-0.8C202,244.6,201.6,244.6,201.2,244.6z"/>
			</g>
			<g>
				<ellipse class="st19" cx="210" cy="243.8" rx="2.9" ry="1.5"/>
				<path class="st20" d="M211.3,244.6c-1.6,0-2.9-0.5-2.9-1.2c0-0.6,0.9-1,2.2-1.2c-0.2,0-0.4,0-0.6,0c-1.6,0-2.9,0.7-2.9,1.5
					s1.3,1.5,2.9,1.5c1.1,0,2-0.3,2.5-0.8C212.2,244.6,211.8,244.6,211.3,244.6z"/>
			</g>
			<g>
				<ellipse class="st19" cx="220.2" cy="243.8" rx="2.9" ry="1.5"/>
				<path class="st20" d="M221.4,244.6c-1.6,0-2.9-0.5-2.9-1.2c0-0.6,0.9-1,2.2-1.2c-0.2,0-0.4,0-0.6,0c-1.6,0-2.9,0.7-2.9,1.5
					s1.3,1.5,2.9,1.5c1.1,0,2-0.3,2.5-0.8C222.3,244.6,221.9,244.6,221.4,244.6z"/>
			</g>
			<g>
				<ellipse class="st19" cx="230.3" cy="243.8" rx="2.9" ry="1.5"/>
				<path class="st20" d="M231.6,244.6c-1.6,0-2.9-0.5-2.9-1.2c0-0.6,0.9-1,2.2-1.2c-0.2,0-0.4,0-0.6,0c-1.6,0-2.9,0.7-2.9,1.5
					s1.3,1.5,2.9,1.5c1.1,0,2-0.3,2.5-0.8C232.4,244.6,232,244.6,231.6,244.6z"/>
			</g>
		</g>
		<g>
			<g>
				<ellipse class="st19" cx="93.6" cy="248.6" rx="2.9" ry="1.5"/>
				<path class="st20" d="M94.9,249.5c-1.6,0-2.9-0.5-2.9-1.2c0-0.6,0.9-1,2.2-1.2c-0.2,0-0.4,0-0.6,0c-1.6,0-2.9,0.7-2.9,1.5
					s1.3,1.5,2.9,1.5c1.1,0,2-0.3,2.5-0.8C95.8,249.5,95.3,249.5,94.9,249.5z"/>
			</g>
			<g>
				<ellipse class="st19" cx="103.7" cy="248.6" rx="2.9" ry="1.5"/>
				<path class="st20" d="M105,249.5c-1.6,0-2.9-0.5-2.9-1.2c0-0.6,0.9-1,2.2-1.2c-0.2,0-0.4,0-0.6,0c-1.6,0-2.9,0.7-2.9,1.5
					s1.3,1.5,2.9,1.5c1.1,0,2-0.3,2.5-0.8C105.9,249.5,105.5,249.5,105,249.5z"/>
			</g>
			<g>
				<ellipse class="st19" cx="113.9" cy="248.6" rx="2.9" ry="1.5"/>
				<path class="st20" d="M115.2,249.5c-1.6,0-2.9-0.5-2.9-1.2c0-0.6,0.9-1,2.2-1.2c-0.2,0-0.4,0-0.6,0c-1.6,0-2.9,0.7-2.9,1.5
					s1.3,1.5,2.9,1.5c1.1,0,2-0.3,2.5-0.8C116,249.5,115.6,249.5,115.2,249.5z"/>
			</g>
			<g>
				<ellipse class="st19" cx="124" cy="248.6" rx="2.9" ry="1.5"/>
				<path class="st20" d="M125.3,249.5c-1.6,0-2.9-0.5-2.9-1.2c0-0.6,0.9-1,2.2-1.2c-0.2,0-0.4,0-0.6,0c-1.6,0-2.9,0.7-2.9,1.5
					s1.3,1.5,2.9,1.5c1.1,0,2-0.3,2.5-0.8C126.1,249.5,125.7,249.5,125.3,249.5z"/>
			</g>
			<g>
				<ellipse class="st19" cx="134.1" cy="248.6" rx="2.9" ry="1.5"/>
				<path class="st20" d="M135.4,249.5c-1.6,0-2.9-0.5-2.9-1.2c0-0.6,0.9-1,2.2-1.2c-0.2,0-0.4,0-0.6,0c-1.6,0-2.9,0.7-2.9,1.5
					s1.3,1.5,2.9,1.5c1.1,0,2-0.3,2.5-0.8C136.3,249.5,135.9,249.5,135.4,249.5z"/>
			</g>
			<g>
				<ellipse class="st19" cx="144.3" cy="248.6" rx="2.9" ry="1.5"/>
				<path class="st20" d="M145.5,249.5c-1.6,0-2.9-0.5-2.9-1.2c0-0.6,0.9-1,2.2-1.2c-0.2,0-0.4,0-0.6,0c-1.6,0-2.9,0.7-2.9,1.5
					s1.3,1.5,2.9,1.5c1.1,0,2-0.3,2.5-0.8C146.4,249.5,146,249.5,145.5,249.5z"/>
			</g>
			<g>
				<ellipse class="st19" cx="154.4" cy="248.6" rx="2.9" ry="1.5"/>
				<path class="st20" d="M155.7,249.5c-1.6,0-2.9-0.5-2.9-1.2c0-0.6,0.9-1,2.2-1.2c-0.2,0-0.4,0-0.6,0c-1.6,0-2.9,0.7-2.9,1.5
					s1.3,1.5,2.9,1.5c1.1,0,2-0.3,2.5-0.8C156.5,249.5,156.1,249.5,155.7,249.5z"/>
			</g>
			<g>
				<ellipse class="st19" cx="164.5" cy="248.6" rx="2.9" ry="1.5"/>
				<path class="st20" d="M165.8,249.5c-1.6,0-2.9-0.5-2.9-1.2c0-0.6,0.9-1,2.2-1.2c-0.2,0-0.4,0-0.6,0c-1.6,0-2.9,0.7-2.9,1.5
					s1.3,1.5,2.9,1.5c1.1,0,2-0.3,2.5-0.8C166.6,249.5,166.2,249.5,165.8,249.5z"/>
			</g>
			<g>
				<ellipse class="st19" cx="174.6" cy="248.6" rx="2.9" ry="1.5"/>
				<path class="st20" d="M175.9,249.5c-1.6,0-2.9-0.5-2.9-1.2c0-0.6,0.9-1,2.2-1.2c-0.2,0-0.4,0-0.6,0c-1.6,0-2.9,0.7-2.9,1.5
					s1.3,1.5,2.9,1.5c1.1,0,2-0.3,2.5-0.8C176.8,249.5,176.4,249.5,175.9,249.5z"/>
			</g>
			<g>
				<ellipse class="st19" cx="184.8" cy="248.6" rx="2.9" ry="1.5"/>
				<path class="st20" d="M186.1,249.5c-1.6,0-2.9-0.5-2.9-1.2c0-0.6,0.9-1,2.2-1.2c-0.2,0-0.4,0-0.6,0c-1.6,0-2.9,0.7-2.9,1.5
					s1.3,1.5,2.9,1.5c1.1,0,2-0.3,2.5-0.8C186.9,249.5,186.5,249.5,186.1,249.5z"/>
			</g>
			<g>
				<ellipse class="st19" cx="194.9" cy="248.6" rx="2.9" ry="1.5"/>
				<path class="st20" d="M196.2,249.5c-1.6,0-2.9-0.5-2.9-1.2c0-0.6,0.9-1,2.2-1.2c-0.2,0-0.4,0-0.6,0c-1.6,0-2.9,0.7-2.9,1.5
					s1.3,1.5,2.9,1.5c1.1,0,2-0.3,2.5-0.8C197,249.5,196.6,249.5,196.2,249.5z"/>
			</g>
			<g>
				<ellipse class="st19" cx="205" cy="248.6" rx="2.9" ry="1.5"/>
				<path class="st20" d="M206.3,249.5c-1.6,0-2.9-0.5-2.9-1.2c0-0.6,0.9-1,2.2-1.2c-0.2,0-0.4,0-0.6,0c-1.6,0-2.9,0.7-2.9,1.5
					s1.3,1.5,2.9,1.5c1.1,0,2-0.3,2.5-0.8C207.2,249.5,206.8,249.5,206.3,249.5z"/>
			</g>
			<g>
				<ellipse class="st19" cx="215.2" cy="248.6" rx="2.9" ry="1.5"/>
				<path class="st20" d="M216.4,249.5c-1.6,0-2.9-0.5-2.9-1.2c0-0.6,0.9-1,2.2-1.2c-0.2,0-0.4,0-0.6,0c-1.6,0-2.9,0.7-2.9,1.5
					s1.3,1.5,2.9,1.5c1.1,0,2-0.3,2.5-0.8C217.3,249.5,216.9,249.5,216.4,249.5z"/>
			</g>
			<g>
				<ellipse class="st19" cx="225.3" cy="248.6" rx="2.9" ry="1.5"/>
				<path class="st20" d="M226.6,249.5c-1.6,0-2.9-0.5-2.9-1.2c0-0.6,0.9-1,2.2-1.2c-0.2,0-0.4,0-0.6,0c-1.6,0-2.9,0.7-2.9,1.5
					s1.3,1.5,2.9,1.5c1.1,0,2-0.3,2.5-0.8C227.4,249.5,227,249.5,226.6,249.5z"/>
			</g>
		</g>
		<g>
			<g>
				<ellipse class="st19" cx="88.8" cy="253.5" rx="2.9" ry="1.5"/>
				<path class="st20" d="M90.1,254.3c-1.6,0-2.9-0.5-2.9-1.2c0-0.6,0.9-1,2.2-1.2c-0.2,0-0.4,0-0.6,0c-1.6,0-2.9,0.7-2.9,1.5
					s1.3,1.5,2.9,1.5c1.1,0,2-0.3,2.5-0.8C90.9,254.3,90.5,254.3,90.1,254.3z"/>
			</g>
			<g>
				<ellipse class="st19" cx="98.9" cy="253.5" rx="2.9" ry="1.5"/>
				<path class="st20" d="M100.2,254.3c-1.6,0-2.9-0.5-2.9-1.2c0-0.6,0.9-1,2.2-1.2c-0.2,0-0.4,0-0.6,0c-1.6,0-2.9,0.7-2.9,1.5
					s1.3,1.5,2.9,1.5c1.1,0,2-0.3,2.5-0.8C101.1,254.3,100.7,254.3,100.2,254.3z"/>
			</g>
			<g>
				<ellipse class="st19" cx="109.1" cy="253.5" rx="2.9" ry="1.5"/>
				<path class="st20" d="M110.3,254.3c-1.6,0-2.9-0.5-2.9-1.2c0-0.6,0.9-1,2.2-1.2c-0.2,0-0.4,0-0.6,0c-1.6,0-2.9,0.7-2.9,1.5
					s1.3,1.5,2.9,1.5c1.1,0,2-0.3,2.5-0.8C111.2,254.3,110.8,254.3,110.3,254.3z"/>
			</g>
			<g>
				<ellipse class="st19" cx="119.2" cy="253.5" rx="2.9" ry="1.5"/>
				<path class="st20" d="M120.5,254.3c-1.6,0-2.9-0.5-2.9-1.2c0-0.6,0.9-1,2.2-1.2c-0.2,0-0.4,0-0.6,0c-1.6,0-2.9,0.7-2.9,1.5
					s1.3,1.5,2.9,1.5c1.1,0,2-0.3,2.5-0.8C121.3,254.3,120.9,254.3,120.5,254.3z"/>
			</g>
			<g>
				<ellipse class="st19" cx="129.3" cy="253.5" rx="2.9" ry="1.5"/>
				<path class="st20" d="M130.6,254.3c-1.6,0-2.9-0.5-2.9-1.2c0-0.6,0.9-1,2.2-1.2c-0.2,0-0.4,0-0.6,0c-1.6,0-2.9,0.7-2.9,1.5
					s1.3,1.5,2.9,1.5c1.1,0,2-0.3,2.5-0.8C131.4,254.3,131,254.3,130.6,254.3z"/>
			</g>
			<g>
				<ellipse class="st19" cx="139.4" cy="253.5" rx="2.9" ry="1.5"/>
				<path class="st20" d="M140.7,254.3c-1.6,0-2.9-0.5-2.9-1.2c0-0.6,0.9-1,2.2-1.2c-0.2,0-0.4,0-0.6,0c-1.6,0-2.9,0.7-2.9,1.5
					s1.3,1.5,2.9,1.5c1.1,0,2-0.3,2.5-0.8C141.6,254.3,141.2,254.3,140.7,254.3z"/>
			</g>
			<g>
				<ellipse class="st19" cx="149.6" cy="253.5" rx="2.9" ry="1.5"/>
				<path class="st20" d="M150.9,254.3c-1.6,0-2.9-0.5-2.9-1.2c0-0.6,0.9-1,2.2-1.2c-0.2,0-0.4,0-0.6,0c-1.6,0-2.9,0.7-2.9,1.5
					s1.3,1.5,2.9,1.5c1.1,0,2-0.3,2.5-0.8C151.7,254.3,151.3,254.3,150.9,254.3z"/>
			</g>
			<g>
				<ellipse class="st19" cx="159.7" cy="253.5" rx="2.9" ry="1.5"/>
				<path class="st20" d="M161,254.3c-1.6,0-2.9-0.5-2.9-1.2c0-0.6,0.9-1,2.2-1.2c-0.2,0-0.4,0-0.6,0c-1.6,0-2.9,0.7-2.9,1.5
					s1.3,1.5,2.9,1.5c1.1,0,2-0.3,2.5-0.8C161.8,254.3,161.4,254.3,161,254.3z"/>
			</g>
			<g>
				<ellipse class="st19" cx="169.8" cy="253.5" rx="2.9" ry="1.5"/>
				<path class="st20" d="M171.1,254.3c-1.6,0-2.9-0.5-2.9-1.2c0-0.6,0.9-1,2.2-1.2c-0.2,0-0.4,0-0.6,0c-1.6,0-2.9,0.7-2.9,1.5
					s1.3,1.5,2.9,1.5c1.1,0,2-0.3,2.5-0.8C172,254.3,171.5,254.3,171.1,254.3z"/>
			</g>
			<g>
				<ellipse class="st19" cx="179.9" cy="253.5" rx="2.9" ry="1.5"/>
				<path class="st20" d="M181.2,254.3c-1.6,0-2.9-0.5-2.9-1.2c0-0.6,0.9-1,2.2-1.2c-0.2,0-0.4,0-0.6,0c-1.6,0-2.9,0.7-2.9,1.5
					s1.3,1.5,2.9,1.5c1.1,0,2-0.3,2.5-0.8C182.1,254.3,181.7,254.3,181.2,254.3z"/>
			</g>
			<g>
				<ellipse class="st19" cx="190.1" cy="253.5" rx="2.9" ry="1.5"/>
				<path class="st20" d="M191.4,254.3c-1.6,0-2.9-0.5-2.9-1.2c0-0.6,0.9-1,2.2-1.2c-0.2,0-0.4,0-0.6,0c-1.6,0-2.9,0.7-2.9,1.5
					s1.3,1.5,2.9,1.5c1.1,0,2-0.3,2.5-0.8C192.2,254.3,191.8,254.3,191.4,254.3z"/>
			</g>
			<g>
				<ellipse class="st19" cx="200.2" cy="253.5" rx="2.9" ry="1.5"/>
				<path class="st20" d="M201.5,254.3c-1.6,0-2.9-0.5-2.9-1.2c0-0.6,0.9-1,2.2-1.2c-0.2,0-0.4,0-0.6,0c-1.6,0-2.9,0.7-2.9,1.5
					s1.3,1.5,2.9,1.5c1.1,0,2-0.3,2.5-0.8C202.3,254.3,201.9,254.3,201.5,254.3z"/>
			</g>
			<g>
				<ellipse class="st19" cx="210.3" cy="253.5" rx="2.9" ry="1.5"/>
				<path class="st20" d="M211.6,254.3c-1.6,0-2.9-0.5-2.9-1.2c0-0.6,0.9-1,2.2-1.2c-0.2,0-0.4,0-0.6,0c-1.6,0-2.9,0.7-2.9,1.5
					s1.3,1.5,2.9,1.5c1.1,0,2-0.3,2.5-0.8C212.5,254.3,212.1,254.3,211.6,254.3z"/>
			</g>
			<g>
				<ellipse class="st19" cx="220.5" cy="253.5" rx="2.9" ry="1.5"/>
				<path class="st20" d="M221.8,254.3c-1.6,0-2.9-0.5-2.9-1.2c0-0.6,0.9-1,2.2-1.2c-0.2,0-0.4,0-0.6,0c-1.6,0-2.9,0.7-2.9,1.5
					s1.3,1.5,2.9,1.5c1.1,0,2-0.3,2.5-0.8C222.6,254.3,222.2,254.3,221.8,254.3z"/>
			</g>
		</g>
	</g>
</g>
</svg>
